<?xml version="1.0" encoding="utf-8"?>
<!-- Generator: Adobe Illustrator 23.0.1, SVG Export Plug-In . SVG Version: 6.00 Build 0)  -->
<svg version="1.1" id="Capa_1" xmlns="http://www.w3.org/2000/svg" xmlns:xlink="http://www.w3.org/1999/xlink" x="0px" y="0px"
	 viewBox="0 0 498.6 498.6" style="enable-background:new 0 0 498.6 498.6;" xml:space="preserve">
<style type="text/css">
	.st0{fill:#FFCA19;}
	.st1{opacity:0.1;}
	.st2{fill:#030303;}
	.st3{fill:#77C587;}
	.st4{stroke:#000000;stroke-width:9;stroke-miterlimit:10;}
</style>
<path class="st0" d="M454.1,220c0,112.6-92.2,204.8-204.8,204.8c-16.1,0-30.7-1.5-45.3-5.9l-95.1,64.4l14.6-100.9
	c-48.3-38-79-96.5-79-162.4c0-112.6,92.2-204.8,204.8-204.8S454.1,107.4,454.1,220z"/>
<g class="st1">
	<path class="st2" d="M449.7,179.9c-36.6-32.2-83.4-51.2-136-51.2c-112.6,0-204.8,92.2-204.8,204.8c0,14.6,1.5,27.8,4.4,41
		c-42.4-38-68.8-92.2-68.8-152.1c0-112.6,92.2-204.8,204.8-204.8C348.8,16.1,430.7,86.3,449.7,179.9z"/>
</g>
<path class="st3" d="M123.5,383.3l-2.9,19c-2.9-8.8-5.9-19-7.3-27.8C117.6,377.4,120.5,380.3,123.5,383.3z"/>
<path d="M101.5,495.9c-4.4-2.9-7.3-8.8-7.3-14.6l14.6-93.6c-49.7-42.4-79-102.4-79-168.2C29.9,98,127.9,0,249.3,0
	s219.4,98,219.4,219.4s-98,219.4-219.4,219.4c-14.6,0-29.3-1.5-42.4-4.4l-89.2,60C111.8,498.8,105.9,500.3,101.5,495.9z M249.3,30.7
	C144,30.7,59.1,115.6,59.1,220.9c0,58.5,26.3,114.1,73.1,150.7c4.4,2.9,5.9,8.8,5.9,13.2l-10.2,68.8l67.3-45.3
	c2.9-2.9,7.3-2.9,11.7-1.5c14.6,2.9,27.8,4.4,42.4,4.4c105.3,0,190.2-84.8,190.2-190.2S354.6,30.7,249.3,30.7z"/>
<line class="st4" x1="155.8" y1="125.6" x2="342.8" y2="312.6"/>
<line class="st4" x1="155.8" y1="312.6" x2="342.8" y2="125.6"/>
</svg>
